<svg width="25" height="25" viewBox="0 0 25 25" fill="none" xmlns="http://www.w3.org/2000/svg">
<path fill-rule="evenodd" clip-rule="evenodd" d="M3.0311 9.58494L12.5886 15.2003C12.5943 15.2062 12.6056 15.2062 12.6113 15.2003L22.1688 9.58494C22.1802 9.57899 22.1802 9.56115 22.1688 9.54925L12.6056 3.93391C12.6 3.92796 12.5886 3.92796 12.583 3.93391L3.0311 9.54925C3.01977 9.56115 3.01977 9.57899 3.0311 9.58494ZM12.2317 22.2016L2.10764 16.2472C2.09631 16.2413 2.09631 16.2294 2.10198 16.2175L2.53821 15.5037C2.54388 15.4918 2.55521 15.4918 2.56654 15.4977L12.5886 21.3867C12.5943 21.3926 12.6056 21.3926 12.6113 21.3867L21.9989 15.8725C22.2312 15.7356 22.3445 15.462 22.3445 15.1824V13.6834C22.3445 13.6656 22.3275 13.6596 22.3161 13.6656L12.9626 19.1679C12.702 19.3166 12.5037 19.3226 12.2374 19.1679L2.77616 13.6061C2.28894 13.2849 2 12.7257 2 12.1249V9.50761C2 9.12691 2.18696 9.00794 2.4589 8.84733L12.2204 3.10707C12.4583 2.96431 12.7359 2.96431 12.9739 3.10707L22.8827 8.93061C23.0866 9.04958 23.1943 9.30536 23.1943 9.56115C23.1943 9.79908 23.064 10.0727 22.8827 10.1798L12.9512 16.0212C12.6963 16.1699 12.4867 16.1699 12.2374 16.0212L2.87247 10.5129C2.86114 10.507 2.84415 10.5129 2.84415 10.5307V12.1249C2.84415 12.4224 2.98578 12.696 3.22939 12.8566L12.5886 18.3589C12.5943 18.3649 12.6056 18.3649 12.6113 18.3589L22.1462 12.7495C22.3955 12.583 22.7467 12.577 22.9733 12.7912C23.1206 12.928 23.2 13.1302 23.2 13.3325V15.1765C23.2 15.7475 22.8884 16.3662 22.4521 16.622L12.9569 22.2016C12.6963 22.3563 12.498 22.3563 12.2317 22.2016Z" fill="#000"/>
</svg>