<svg width="48" height="48" viewBox="0 0 48 48" fill="none" xmlns="http://www.w3.org/2000/svg">
<g clip-path="url(#clip0_1658_3382)">
<path d="M24 48C37.2548 48 48 37.2548 48 24C48 10.7452 37.2548 0 24 0C10.7452 0 0 10.7452 0 24C0 37.2548 10.7452 48 24 48Z" fill="#F3F3FA"/>
<path fill-rule="evenodd" clip-rule="evenodd" d="M8.60502 19.8855L23.4824 28.3153C23.4912 28.3243 23.5088 28.3243 23.5176 28.3153L38.395 19.8855C38.4126 19.8765 38.4126 19.8497 38.395 19.8319L23.5088 11.402C23.5 11.3931 23.4824 11.3931 23.4735 11.402L8.60502 19.8319C8.58739 19.8497 8.58739 19.8765 8.60502 19.8855ZM22.9268 38.8259L7.16756 29.887C7.14992 29.8781 7.14992 29.8602 7.15874 29.8423L7.83779 28.7707C7.84661 28.7529 7.86424 28.7529 7.88188 28.7618L23.4824 37.6025C23.4912 37.6114 23.5088 37.6114 23.5176 37.6025L38.1304 29.3244C38.492 29.119 38.6684 28.7082 38.6684 28.2885V26.0382C38.6684 26.0114 38.6419 26.0025 38.6243 26.0114L24.0644 34.2716C23.6587 34.4948 23.3501 34.5038 22.9356 34.2716L8.20818 25.9221C7.44976 25.4399 7 24.6005 7 23.6985V19.7694C7 19.1978 7.29102 19.0192 7.71432 18.7781L22.9091 10.1607C23.2795 9.94642 23.7117 9.94642 24.082 10.1607L39.5061 18.9032C39.8236 19.0818 39.9912 19.4657 39.9912 19.8497C39.9912 20.2069 39.7883 20.6177 39.5061 20.7784L24.0468 29.5477C23.6499 29.7709 23.3236 29.7709 22.9356 29.5477L8.3581 21.2785C8.34046 21.2696 8.314 21.2785 8.314 21.3053V23.6985C8.314 24.145 8.53447 24.5558 8.91368 24.7969L23.4824 33.0571C23.4912 33.0661 23.5088 33.0661 23.5176 33.0571L38.3597 24.6362C38.7477 24.3861 39.2945 24.3772 39.6472 24.6987C39.8765 24.9041 40 25.2077 40 25.5113V28.2796C40 29.1369 39.515 30.0656 38.8359 30.4496L24.0556 38.8259C23.6499 39.058 23.3413 39.058 22.9268 38.8259Z" fill="black"/>
</g>
<defs>
<clipPath id="clip0_1658_3382">
<rect width="48" height="48" fill="white"/>
</clipPath>
</defs>
</svg>
